<svg width="135" height="40" viewBox="0 0 135 40" fill="none" xmlns="http://www.w3.org/2000/svg">
<rect width="135" height="40" rx="4" fill="white" fill-opacity="0.01"/>
<rect x="0.5" y="0.5" width="134" height="39" rx="3.5" stroke="white" stroke-opacity="0.2"/>
<rect x="67" width="68" height="40" rx="4" fill="#D9D9D9"/>
<path d="M11.7614 27V12.4545H16.6761C17.8172 12.4545 18.75 12.6605 19.4744 13.0724C20.2036 13.4796 20.7434 14.0312 21.0938 14.7273C21.4441 15.4233 21.6193 16.1998 21.6193 17.0568C21.6193 17.9138 21.4441 18.6927 21.0938 19.3935C20.7481 20.0942 20.2131 20.6529 19.4886 21.0696C18.7642 21.4815 17.8362 21.6875 16.7045 21.6875H13.1818V20.125H16.6477C17.429 20.125 18.0563 19.9901 18.5298 19.7202C19.0033 19.4503 19.3466 19.0857 19.5597 18.6264C19.7775 18.1624 19.8864 17.6392 19.8864 17.0568C19.8864 16.4744 19.7775 15.9536 19.5597 15.4943C19.3466 15.035 19.0009 14.6752 18.5227 14.4148C18.0445 14.1496 17.41 14.017 16.6193 14.017H13.5227V27H11.7614ZM36.7294 19.7273C36.7294 21.2614 36.4524 22.5871 35.8984 23.7045C35.3445 24.822 34.5845 25.6837 33.6186 26.2898C32.6527 26.8958 31.5495 27.1989 30.3089 27.1989C29.0684 27.1989 27.9652 26.8958 26.9993 26.2898C26.0334 25.6837 25.2734 24.822 24.7195 23.7045C24.1655 22.5871 23.8885 21.2614 23.8885 19.7273C23.8885 18.1932 24.1655 16.8674 24.7195 15.75C25.2734 14.6326 26.0334 13.7708 26.9993 13.1648C27.9652 12.5587 29.0684 12.2557 30.3089 12.2557C31.5495 12.2557 32.6527 12.5587 33.6186 13.1648C34.5845 13.7708 35.3445 14.6326 35.8984 15.75C36.4524 16.8674 36.7294 18.1932 36.7294 19.7273ZM35.0249 19.7273C35.0249 18.4678 34.8142 17.4048 34.3928 16.5384C33.9761 15.6719 33.4103 15.0161 32.6953 14.571C31.9851 14.1259 31.1896 13.9034 30.3089 13.9034C29.4283 13.9034 28.6304 14.1259 27.9155 14.571C27.2053 15.0161 26.6394 15.6719 26.218 16.5384C25.8014 17.4048 25.593 18.4678 25.593 19.7273C25.593 20.9867 25.8014 22.0497 26.218 22.9162C26.6394 23.7827 27.2053 24.4384 27.9155 24.8835C28.6304 25.3286 29.4283 25.5511 30.3089 25.5511C31.1896 25.5511 31.9851 25.3286 32.6953 24.8835C33.4103 24.4384 33.9761 23.7827 34.3928 22.9162C34.8142 22.0497 35.0249 20.9867 35.0249 19.7273ZM39.6911 27V12.4545H44.6058C45.7422 12.4545 46.675 12.6487 47.4041 13.0369C48.1333 13.4205 48.6731 13.9484 49.0234 14.6207C49.3738 15.2931 49.549 16.0578 49.549 16.9148C49.549 17.7718 49.3738 18.5317 49.0234 19.1946C48.6731 19.8575 48.1357 20.3783 47.4112 20.7571C46.6868 21.1312 45.7611 21.3182 44.6342 21.3182H40.657V19.7273H44.5774C45.3539 19.7273 45.9789 19.6136 46.4524 19.3864C46.9306 19.1591 47.2763 18.8371 47.4893 18.4205C47.7071 17.9991 47.8161 17.4972 47.8161 16.9148C47.8161 16.3324 47.7071 15.8234 47.4893 15.3878C47.2715 14.9522 46.9235 14.616 46.4453 14.3793C45.9671 14.1378 45.335 14.017 44.549 14.017H41.4524V27H39.6911ZM46.5376 20.4659L50.1172 27H48.0717L44.549 20.4659H46.5376ZM64.0181 12.4545V27H62.3136L54.3874 15.5795H54.2454V27H52.484V12.4545H54.1886L62.1431 23.9034H62.2852V12.4545H64.0181Z" fill="white" fill-opacity="0.8"/>
<path d="M66.4062 15.3097V12.4545H78.7003V15.3097H74.2898V27H70.8239V15.3097H66.4062ZM93.4819 19.7273C93.4819 21.3277 93.1741 22.6842 92.5586 23.7969C91.9431 24.9096 91.1097 25.7547 90.0586 26.3324C89.0122 26.91 87.838 27.1989 86.5359 27.1989C85.229 27.1989 84.0524 26.9077 83.006 26.3253C81.9596 25.7429 81.1287 24.8977 80.5131 23.7898C79.9023 22.6771 79.5969 21.3229 79.5969 19.7273C79.5969 18.1269 79.9023 16.7704 80.5131 15.6577C81.1287 14.545 81.9596 13.6998 83.006 13.1222C84.0524 12.5445 85.229 12.2557 86.5359 12.2557C87.838 12.2557 89.0122 12.5445 90.0586 13.1222C91.1097 13.6998 91.9431 14.545 92.5586 15.6577C93.1741 16.7704 93.4819 18.1269 93.4819 19.7273ZM89.8881 19.7273C89.8881 18.7803 89.7532 17.9801 89.4833 17.3267C89.2182 16.6733 88.8346 16.1785 88.3327 15.8423C87.8356 15.5062 87.2366 15.3381 86.5359 15.3381C85.8398 15.3381 85.2409 15.5062 84.739 15.8423C84.2371 16.1785 83.8512 16.6733 83.5813 17.3267C83.3162 17.9801 83.1836 18.7803 83.1836 19.7273C83.1836 20.6742 83.3162 21.4744 83.5813 22.1278C83.8512 22.7812 84.2371 23.276 84.739 23.6122C85.2409 23.9484 85.8398 24.1165 86.5359 24.1165C87.2366 24.1165 87.8356 23.9484 88.3327 23.6122C88.8346 23.276 89.2182 22.7812 89.4833 22.1278C89.7532 21.4744 89.8881 20.6742 89.8881 19.7273ZM109.263 19.7273C109.263 21.3277 108.955 22.6842 108.34 23.7969C107.724 24.9096 106.891 25.7547 105.84 26.3324C104.793 26.91 103.619 27.1989 102.317 27.1989C101.01 27.1989 99.8337 26.9077 98.7873 26.3253C97.7409 25.7429 96.9099 24.8977 96.2944 23.7898C95.6836 22.6771 95.3782 21.3229 95.3782 19.7273C95.3782 18.1269 95.6836 16.7704 96.2944 15.6577C96.9099 14.545 97.7409 13.6998 98.7873 13.1222C99.8337 12.5445 101.01 12.2557 102.317 12.2557C103.619 12.2557 104.793 12.5445 105.84 13.1222C106.891 13.6998 107.724 14.545 108.34 15.6577C108.955 16.7704 109.263 18.1269 109.263 19.7273ZM105.669 19.7273C105.669 18.7803 105.534 17.9801 105.265 17.3267C104.999 16.6733 104.616 16.1785 104.114 15.8423C103.617 15.5062 103.018 15.3381 102.317 15.3381C101.621 15.3381 101.022 15.5062 100.52 15.8423C100.018 16.1785 99.6325 16.6733 99.3626 17.3267C99.0974 17.9801 98.9648 18.7803 98.9648 19.7273C98.9648 20.6742 99.0974 21.4744 99.3626 22.1278C99.6325 22.7812 100.018 23.276 100.52 23.6122C101.022 23.9484 101.621 24.1165 102.317 24.1165C103.018 24.1165 103.617 23.9484 104.114 23.6122C104.616 23.276 104.999 22.7812 105.265 22.1278C105.534 21.4744 105.669 20.6742 105.669 19.7273ZM123.695 12.4545V27H120.712L114.924 18.6051H114.831V27H111.316V12.4545H114.341L120.066 20.8352H120.186V12.4545H123.695Z" fill="#312F22"/>
</svg>